<svg width="70" height="81" viewBox="0 0 70 81" fill="none" xmlns="http://www.w3.org/2000/svg">
<path d="M67.5 59.1352V21.6359L35 2.8862L2.5 21.6359V59.1352L35 77.8862L67.5 59.1352Z" stroke="#F2F2F2" stroke-width="5" stroke-miterlimit="10"/>
<path d="M38.1625 31.5987C37.88 31.8869 37.7218 32.2743 37.7218 32.6779C37.7218 33.0814 37.88 33.4689 38.1625 33.757L40.6291 36.2237C40.9173 36.5062 41.3048 36.6644 41.7083 36.6644C42.1118 36.6644 42.4993 36.5062 42.7875 36.2237L48.5995 30.4116C49.3747 32.1247 49.6095 34.0334 49.2724 35.8832C48.9354 37.7331 48.0426 39.4363 46.713 40.7659C45.3834 42.0955 43.6802 42.9883 41.8303 43.3253C39.9804 43.6624 38.0718 43.4277 36.3587 42.6525L25.7058 53.3054C25.0925 53.9187 24.2606 54.2632 23.3933 54.2632C22.5259 54.2632 21.6941 53.9187 21.0808 53.3054C20.4675 52.6921 20.1229 51.8602 20.1229 50.9929C20.1229 50.1255 20.4675 49.2937 21.0808 48.6804L31.7337 38.0275C30.9585 36.3144 30.7238 34.4057 31.0608 32.5559C31.3979 30.706 32.2907 29.0028 33.6203 27.6732C34.9499 26.3436 36.6531 25.4508 38.5029 25.1138C40.3528 24.7767 42.2615 25.0114 43.9745 25.7866L38.1625 31.5987Z" stroke="white" stroke-width="2" stroke-linecap="round" stroke-linejoin="round"/>
</svg>
