<?xml version="1.0" encoding="UTF-8"?>
<svg xmlns="http://www.w3.org/2000/svg" xmlns:xlink="http://www.w3.org/1999/xlink" width="5000" height="5000" viewBox="0 0 5000 5000">
<path fill-rule="evenodd" fill="rgb(0%, 0%, 0%)" fill-opacity="1" d="M 3772.011719 2071.589844 L 4165.351562 2025.410156 L 3643.980469 2908.480469 L 2967.679688 2166.019531 L 3392 2116.210938 C 3320.269531 1918.460938 3194.019531 1743.539062 3026.21875 1612.691406 C 2536.578125 1230.890625 1829.078125 1318.441406 1447.269531 1808.078125 C 1065.46875 2297.71875 1153.019531 3005.230469 1642.660156 3387.03125 C 2132.628906 3769.089844 2839.550781 3681.609375 3221.609375 3191.640625 L 3517.328125 3422.230469 C 3007.921875 4075.523438 2065.359375 4192.164062 1412.070312 3682.75 C 759.214844 3173.679688 642.480469 2230.339844 1151.550781 1577.488281 C 1660.621094 924.628906 2603.960938 807.898438 3256.808594 1316.96875 C 3503.828125 1509.589844 3683.308594 1773.828125 3772.011719 2071.589844 "/>
</svg>
