<?xml version="1.0" encoding="utf-8"?>
<!-- Generator: Adobe Illustrator 26.3.1, SVG Export Plug-In . SVG Version: 6.00 Build 0)  -->
<svg version="1.1" xmlns="http://www.w3.org/2000/svg" xmlns:xlink="http://www.w3.org/1999/xlink" x="0px" y="0px"
	 viewBox="0 0 1000 1000" style="enable-background:new 0 0 1000 1000;" xml:space="preserve">
<style type="text/css">
	.st0{fill:#FFFFFF;}
	.st1{fill:none;stroke:#282828;stroke-width:34.3158;stroke-miterlimit:10;}
	.st2{fill:url(#SVGID_1_);}
	.st3{fill:url(#SVGID_00000148632955182907556650000010840029191218792351_);}
	.st4{fill:url(#SVGID_00000046321546179111527310000010481265823092597933_);}
	.st5{fill:url(#SVGID_00000147940608254848679350000011458847766541208453_);}
	.st6{fill:url(#SVGID_00000127723118638264724190000015439832865441186741_);}
	.st7{fill:url(#SVGID_00000049924882140007332730000014344919996822216379_);}
	.st8{fill:url(#SVGID_00000113316714102280526210000010339687456180656283_);}
	.st9{fill:url(#SVGID_00000038407832392271711910000008957209443359736978_);}
	.st10{fill:#282828;}
	.st11{fill:#64B6ED;}
	.st12{fill:#429ED1;}
</style>
<g id="Layer_4">
</g>
<g id="Layer_2">
</g>
<g id="Logo">
	<linearGradient id="SVGID_1_" gradientUnits="userSpaceOnUse" x1="823.9197" y1="93.2733" x2="55.2831" y2="981.2815">
		<stop  offset="0" style="stop-color:#64B6ED"/>
		<stop  offset="0.2996" style="stop-color:#61B4EB"/>
		<stop  offset="0.4975" style="stop-color:#58AEE4"/>
		<stop  offset="0.6654" style="stop-color:#4AA3D7"/>
		<stop  offset="0.7263" style="stop-color:#429ED1"/>
		<stop  offset="0.8094" style="stop-color:#4DA6DA"/>
		<stop  offset="1" style="stop-color:#64B6ED"/>
	</linearGradient>
	<path class="st2" d="M716.5,325.7h-433l-29.6,120.6c39-17.4,81.3-26.3,124-26.3h66.8v375.5h110.7V420h66.8c42.7,0,84.9,9,124,26.3
		L716.5,325.7z M716.5,325.7h-433l-29.6,120.6c39-17.4,81.3-26.3,124-26.3h66.8v375.5h110.7V420h66.8c42.7,0,84.9,9,124,26.3
		L716.5,325.7z"/>
	
		<linearGradient id="SVGID_00000147178024150566889020000004049933525472636583_" gradientUnits="userSpaceOnUse" x1="839.4908" y1="106.7514" x2="70.8543" y2="994.7595">
		<stop  offset="0" style="stop-color:#64B6ED"/>
		<stop  offset="0.2996" style="stop-color:#61B4EB"/>
		<stop  offset="0.4975" style="stop-color:#58AEE4"/>
		<stop  offset="0.6654" style="stop-color:#4AA3D7"/>
		<stop  offset="0.7263" style="stop-color:#429ED1"/>
		<stop  offset="0.8094" style="stop-color:#4DA6DA"/>
		<stop  offset="1" style="stop-color:#64B6ED"/>
	</linearGradient>
	<polygon style="fill:url(#SVGID_00000147178024150566889020000004049933525472636583_);" points="885.8,276.2 885.8,721.7 
		636.1,865.8 607,815.4 827.5,688.1 827.5,309.9 500,120.7 172.5,309.9 172.5,688.1 393,815.4 380.2,837.5 314.8,837.5 114.2,721.7 
		114.2,276.2 500,53.5 	"/>
	
		<linearGradient id="SVGID_00000126302040368926315400000009599991467993625221_" gradientUnits="userSpaceOnUse" x1="1080.3868" y1="315.2646" x2="311.7503" y2="1203.2728">
		<stop  offset="0" style="stop-color:#64B6ED"/>
		<stop  offset="0.2996" style="stop-color:#61B4EB"/>
		<stop  offset="0.4975" style="stop-color:#58AEE4"/>
		<stop  offset="0.6654" style="stop-color:#4AA3D7"/>
		<stop  offset="0.7263" style="stop-color:#429ED1"/>
		<stop  offset="0.8094" style="stop-color:#4DA6DA"/>
		<stop  offset="1" style="stop-color:#64B6ED"/>
	</linearGradient>
	<polygon style="fill:url(#SVGID_00000126302040368926315400000009599991467993625221_);" points="975.7,421.7 975.7,576.2 
		910.2,626 910.2,372 	"/>
	
		<linearGradient id="SVGID_00000003822384548261973980000006683464383668839346_" gradientUnits="userSpaceOnUse" x1="818.7538" y1="88.8019" x2="50.1172" y2="976.8101">
		<stop  offset="0" style="stop-color:#64B6ED"/>
		<stop  offset="0.2996" style="stop-color:#61B4EB"/>
		<stop  offset="0.4975" style="stop-color:#58AEE4"/>
		<stop  offset="0.6654" style="stop-color:#4AA3D7"/>
		<stop  offset="0.7263" style="stop-color:#429ED1"/>
		<stop  offset="0.8094" style="stop-color:#4DA6DA"/>
		<stop  offset="1" style="stop-color:#64B6ED"/>
	</linearGradient>
	<polygon style="fill:url(#SVGID_00000003822384548261973980000006683464383668839346_);" points="610.9,893.7 611.4,894.4 
		578.7,951 421.3,951 397,909 290.8,909 42.5,758.3 42.5,590 24.3,576.2 24.3,421.7 89.8,372 89.8,626 71.6,612.2 71.6,746.3 
		302.8,879.9 397,879.9 418.2,843.3 421.3,837.9 578.7,837.9 	"/>
</g>
<g id="Layer_3">
</g>
</svg>
